<?xml version="1.0" standalone="no"?><!DOCTYPE svg PUBLIC "-//W3C//DTD SVG 1.1//EN" "http://www.w3.org/Graphics/SVG/1.1/DTD/svg11.dtd"><svg xmlns="http://www.w3.org/2000/svg" width="1000" height="600" viewBox="0 0 1000 600"><g class="sankey" transform="translate(130,25)"><g class="groups"><g class="group" style="display: none;" transform="translate(184.75,216.77685331558365)"><rect x="-10" y="-20" width="21" height="339.5316859417033" style="fill: rgb(238, 238, 238); stroke: rgb(187, 187, 187); stroke-width: 0.5;"/><text x="-10" y="-25" style="fill: rgb(153, 153, 153);"/></g><g class="group" style="display: none;" transform="translate(369.5,216.77685331558365)"><rect x="-10" y="-20" width="21" height="127.87775836407172" style="fill: rgb(238, 238, 238); stroke: rgb(187, 187, 187); stroke-width: 0.5;"/><text x="-10" y="-25" style="fill: rgb(153, 153, 153);"/></g><g class="group" style="display: none;" transform="translate(554.25,47.95299803089553)"><rect x="-10" y="-20" width="21" height="112.17939651107967" style="fill: rgb(238, 238, 238); stroke: rgb(187, 187, 187); stroke-width: 0.5;"/><text x="-10" y="-25" style="fill: rgb(153, 153, 153);"/></g><g class="group" style="display: none;" transform="translate(554.25,216.77685331558365)"><rect x="-10" y="-20" width="21" height="127.87775836407172" style="fill: rgb(238, 238, 238); stroke: rgb(187, 187, 187); stroke-width: 0.5;"/><text x="-10" y="-25" style="fill: rgb(153, 153, 153);"/></g><g class="group" style="display: none;" transform="translate(554.25,378.8727770536157)"><rect x="-10" y="-20" width="21" height="177.43576220367135" style="fill: rgb(238, 238, 238); stroke: rgb(187, 187, 187); stroke-width: 0.5;"/><text x="-10" y="-25" style="fill: rgb(153, 153, 153);"/></g></g><g class="links"><g class="link" style="opacity: 0.8;"><path d="M1,311.37913581274086 A137.679910418898 137.679910418898 0.41972623741135084 0 0 57.10600475526255,299.4285933368904 L146.70317306347954,259.44637411953164 A93.36404805854795 93.36404805854795 0.41972623741135084 0 1 184.75,251.34242475868234 L184.75,251.34242475868234 A93.36404805854795 93.36404805854795 0.41972623741135084 0 0 146.70317306347954,259.44637411953164 L57.10600475526255,299.4285933368904 A137.679910418898 137.679910418898 0.41972623741135084 0 1 1,311.37913581274086 Z" style="fill: rgb(253, 218, 236);"/><title>prod1 → Rounds and squares for tubes
Rounds and squares for tubes
0.00</title></g><g class="link" style="opacity: 0.8;"><path d="M185.75,251.34242475868234 A58.18497490644615 58.18497490644615 1.1824276838040726 0 1 239.60182647362757,287.4939684680118 L314.43584620863277,470.39551516950274 A59.49485126868293 59.49485126868293 1.1824276838040726 0 0 369.5,507.36091250065397 L369.5,507.36091250065397 A59.49485126868293 59.49485126868293 1.1824276838040726 0 1 314.43584620863277,470.39551516950274 L239.60182647362757,287.4939684680118 A58.18497490644615 58.18497490644615 1.1824276838040726 0 0 185.75,251.34242475868234 Z" style="fill: rgb(253, 218, 236);"/><title>Rounds and squares for tubes → prod2
Rounds and squares for tubes
0.00</title></g><g class="link" style="opacity: 0.8;"><path d="M185.75,251.34242475868234 A55.13292299178466 55.13292299178466 1.0765905380511498 0 0 234.28603211161007,222.36084560385592 L295.58955669351445,108.5835247819262 A83.95615796805927 83.95615796805927 1.0765905380511498 0 1 369.5,64.45051122759335 L369.5,64.45051122759335 A83.95615796805927 83.95615796805927 1.0765905380511498 0 0 295.58955669351445,108.5835247819262 L234.28603211161007,222.36084560385592 A55.13292299178466 55.13292299178466 1.0765905380511498 0 1 185.75,251.34242475868234 Z" style="fill: rgb(253, 218, 236);"/><title>Rounds and squares for tubes → e1
Rounds and squares for tubes
0.00</title></g><g class="link" style="opacity: 0.8;"><path d="M185.75,251.34242475868234 A157.83416613919135 157.83416613919135 0.2189169369308568 0 0 220.0272462551729,247.575433546586 L334.94215237950857,222.0088809212272 A159.1262326658564 159.1262326658564 0.2189169369308568 0 1 369.5,218.21105225884713 L369.5,218.21105225884713 A159.1262326658564 159.1262326658564 0.2189169369308568 0 0 334.94215237950857,222.0088809212272 L220.0272462551729,247.575433546586 A157.83416613919135 157.83416613919135 0.2189169369308568 0 1 185.75,251.34242475868234 Z" style="fill: rgb(253, 218, 236);"/><title>Rounds and squares for tubes → 
Rounds and squares for tubes
0.00</title></g><g class="link" style="opacity: 0.8;"><path d="M185.75,378.38428242584155 A58.23035346068626 58.23035346068626 0.7733881077844346 0 1 226.42760517635307,394.9480245379529 L326.1333305177812,492.2871168709135 A62.07977292208819 62.07977292208819 0.7733881077844346 0 0 369.5,509.9458341540592 L369.5,509.9458341540592 A62.07977292208819 62.07977292208819 0.7733881077844346 0 1 326.1333305177812,492.2871168709135 L226.42760517635307,394.9480245379529 A58.23035346068626 58.23035346068626 0.7733881077844346 0 0 185.75,378.38428242584155 Z" style="fill: rgb(251, 180, 174);"/><title>Heavy sections, sheet piling, rails and rolled accessories → prod2
Heavy sections, sheet piling, rails and rolled accessories
0.00</title></g><g class="link" style="opacity: 0.8;"><path d="M370.5,107.44537584010502 A0 0 0 0 0 370.5,107.44537584010502 L554.25,107.44537584010502 A0 0 0 0 0 554.25,107.44537584010502 L554.25,107.44537584010502 A0 0 0 0 0 554.25,107.44537584010502 L370.5,107.44537584010502 A0 0 0 0 0 370.5,107.44537584010502 Z" style="fill: rgb(253, 218, 236);"/><title>e1 → 
Rounds and squares for tubes
0.00</title></g><g class="link" style="opacity: 0.8;"><path d="M370.5,283.54927617084473 A0 0 0 0 0 370.5,283.54927617084473 L554.25,283.54927617084473 A0 0 0 0 0 554.25,283.54927617084473 L554.25,283.54927617084473 A0 0 0 0 0 554.25,283.54927617084473 L370.5,283.54927617084473 A0 0 0 0 0 370.5,283.54927617084473 Z" style="fill: rgb(253, 218, 236);"/><title> → 
Rounds and squares for tubes
0.00</title></g><g class="link" style="opacity: 0.8;"><path d="M555.25,107.44537584010502 A1000 1000 0.021094647777558873 0 0 576.3430833483292,107.22289200800746 L717.9069166516708,104.23620978452472 A1000 1000 0.021094647777558873 0 1 739,104.01372595242717 L739,104.01372595242717 A1000 1000 0.021094647777558873 0 0 717.9069166516708,104.23620978452472 L576.3430833483292,107.22289200800746 A1000 1000 0.021094647777558873 0 1 555.25,107.44537584010502 Z" style="fill: rgb(253, 218, 236);"/><title> → export
Rounds and squares for tubes
0.00</title></g><g class="link" style="opacity: 0.8;"><path d="M555.25,283.54927617084473 A52.7669387517749 52.7669387517749 0.634383516399913 0 1 586.5239666788189,293.8157580614788 L683.2872549582318,365.01903625847626 A94.0012194648558 94.0012194648558 0.634383516399913 0 0 739,383.3081741194631 L739,383.3081741194631 A94.0012194648558 94.0012194648558 0.634383516399913 0 1 683.2872549582318,365.01903625847626 L586.5239666788189,293.8157580614788 A52.7669387517749 52.7669387517749 0.634383516399913 0 0 555.25,283.54927617084473 Z" style="fill: rgb(253, 218, 236);"/><title> → uk_market
Rounds and squares for tubes
0.00</title></g><g class="link" style="opacity: 0.8;"><path d="M185.75,398.8937728199046 A63.52775387726638 63.52775387726638 0.6640025974693756 0 1 224.9005000158263,412.39139716304607 L331.5820478904467,495.8738102738271 A61.52775387726638 61.52775387726638 0.6640025974693756 0 0 369.5,508.9464983168684 L369.5,510.9464983168684 A63.52775387726638 63.52775387726638 0.6640025974693756 0 1 330.3494999841737,497.4488739737269 L223.6679521095533,413.9664608629459 A61.52775387726638 61.52775387726638 0.6640025974693756 0 0 185.75,400.8937728199046 Z" style="fill: rgb(222, 203, 228);"/><title>Light sections → prod2
Light sections
50.9m</title></g><g class="link" style="opacity: 0.8;"><path d="M185.75,268.9226709770729 A57.94603381868247 57.94603381868247 1.1400462818078987 0 1 238.40282716298168,302.6731963890062 L316.3472813253966,472.2912843553577 A58.49617959430133 58.49617959430133 1.1400462818078987 0 0 369.5,506.36224082627234 L369.5,508.36224082627234 A60.49617959430133 60.49617959430133 1.1400462818078987 0 1 314.5299756810539,473.1263892559781 L236.58552151863898,303.5083012896266 A55.94603381868247 55.94603381868247 1.1400462818078987 0 0 185.75,270.9226709770729 Z" style="fill: rgb(255, 255, 204);"/><title>Rods and bars for reinforcement → prod2
Rods and bars for reinforcement
102m</title></g><g class="link" style="opacity: 0.8;"><path d="M185.75,233.73446780510372 A60.46894891912414 60.46894891912414 1.216070500627902 0 1 242.45425820737438,273.2005387182245 L314.67122530014336,468.174272689889 A58.46894891912414 58.46894891912414 1.216070500627902 0 0 369.5,506.3350101510952 L369.5,508.3350101510952 A60.46894891912414 60.46894891912414 1.216070500627902 0 1 312.7957417926256,468.8689392379745 L240.57877469985664,273.89520526631 A58.46894891912414 58.46894891912414 1.216070500627902 0 0 185.75,235.73446780510372 Z" style="fill: rgb(204, 235, 197);"/><title>Ingots, blooms, billets and slabs → prod2
Ingots, blooms, billets and slabs
1.98</title></g><g class="link" style="opacity: 0.8;"><path d="M555.25,445.33847411351775 A62.64852722184881 62.64852722184881 1.338432618501657 0 0 616.2148357204865,397.1165462359643 L666.5450593792153,184.42790465786004 A74.45595918030693 74.45595918030693 1.338432618501657 0 1 739,127.11754074567119 L739,129.1175407456712 A72.45595918030693 72.45595918030693 1.338432618501657 0 0 668.4913089855182,184.88846135357318 L618.1610853267894,397.5771029316775 A64.64852722184881 64.64852722184881 1.338432618501657 0 1 555.25,447.33847411351775 Z" style="fill: rgb(204, 235, 197);"/><title>Cold rolled narrow strip → export
Cold rolled narrow strip
8.50</title></g><g class="link" style="opacity: 0.8;"><path d="M555.25,445.7458846024658 A171.2040867216826 171.2040867216826 0.199684610724018 0 0 589.2100800383805,442.3439202570876 L704.6431995247576,418.98236844044095 A173.2040867216826 173.2040867216826 0.199684610724018 0 1 739,415.54066246960826 L739,417.54066246960826 A171.2040867216826 171.2040867216826 0.199684610724018 0 0 705.0399199616195,420.9426268149865 L589.6068004752424,444.30417863163314 A173.2040867216826 173.2040867216826 0.199684610724018 0 1 555.25,447.7458846024658 Z" style="fill: rgb(204, 235, 197);"/><title>Cold rolled narrow strip → uk_market
Cold rolled narrow strip
22.7</title></g><g class="link" style="opacity: 0.8;"><path d="M370.5,509.85305673424483 A87.4984062765528 87.4984062765528 0.41260022668700036 0 0 405.5862221612199,502.5102997619689 L518.3617924391758,453.14548583463034 A89.4984062765528 89.4984062765528 0.41260022668700036 0 1 554.25,445.6348913602845 L554.25,447.6348913602845 A87.4984062765528 87.4984062765528 0.41260022668700036 0 0 519.1637778387801,454.9776483325604 L406.3882075608242,504.342462259899 A89.4984062765528 89.4984062765528 0.41260022668700036 0 1 370.5,511.85305673424483 Z" style="fill: rgb(204, 235, 197);"/><title>prod2 → Cold rolled narrow strip
Cold rolled narrow strip
31.2</title></g><g class="link" style="opacity: 0.8;"><path d="M185.75,303.9245230865657 A56.399073833112446 56.399073833112446 1.0478307767131771 0 1 234.6108775621216,332.1549943080428 L318.3268994283437,477.36767492230126 A59.06802377302228 59.06802377302228 1.0478307767131771 0 0 369.5,506.93408500499334 L369.5,508.93408500499334 A61.06802377302228 61.06802377302228 1.0478307767131771 0 1 316.59421574255475,478.36657794312 L232.87819387633257,333.1538973288615 A54.399073833112446 54.399073833112446 1.0478307767131771 0 0 185.75,305.9245230865657 Z" style="fill: rgb(229, 216, 189);"/><title>Rods in coil → prod2
Rods in coil
43.7</title></g><g class="link" style="opacity: 0.8;"><path d="M555.25,378.52567847821194 A56.90975043789155 56.90975043789155 1.2246828843274427 0 0 608.784905876794,340.92223653433075 L668.2408108490192,176.05559320398214 A75.21985384708454 75.21985384708454 1.2246828843274427 0 1 739,126.35364607889359 L739,128.35364607889358 A73.21985384708454 73.21985384708454 1.2246828843274427 0 0 670.1222074626003,176.73408180551206 L610.6663024903751,341.60072513586067 A58.90975043789155 58.90975043789155 1.2246828843274427 0 1 555.25,380.52567847821194 Z" style="fill: rgb(179, 205, 227);"/><title>Bright bars → export
Bright bars
50.0</title></g><g class="link" style="opacity: 0.8;"><path d="M185.75,232.9914659839132 A308.4669181578955 308.4669181578955 0.10971539083943238 0 0 219.52571086823568,231.13674744171325 L335.505298316996,218.36069672619547 A310.4669181578955 310.4669181578955 0.10971539083943238 0 1 369.5,216.4939527872154 L369.5,218.4939527872154 A308.4669181578955 308.4669181578955 0.10971539083943238 0 0 335.7242891317643,220.34867132941534 L219.74470168300402,233.12472204493312 A310.4669181578955 310.4669181578955 0.10971539083943238 0 1 185.75,234.9914659839132 Z" style="fill: rgb(204, 235, 197);"/><title>Ingots, blooms, billets and slabs → 
Ingots, blooms, billets and slabs
54.9</title></g><g class="link" style="opacity: 0.8;"><path d="M370.5,240.18942433820732 A0 0 0 0 0 370.5,240.18942433820732 L554.25,240.18942433820732 A0 0 0 0 0 554.25,240.18942433820732 L554.25,242.18942433820732 A0 0 0 0 0 554.25,242.18942433820732 L370.5,242.18942433820732 A0 0 0 0 0 370.5,242.18942433820732 Z" style="fill: rgb(204, 235, 197);"/><title> → 
Ingots, blooms, billets and slabs
54.9</title></g><g class="link" style="opacity: 0.8;"><path d="M555.25,240.18942433820732 A96.12679058441235 96.12679058441235 0.6343835163999128 0 1 612.2225308458904,258.89211920898845 L708.9858191253034,330.09539740598586 A50.641367632218355 50.641367632218355 0.6343835163999128 0 0 739,339.94832228682566 L739,341.94832228682566 A52.641367632218355 52.641367632218355 0.6343835163999128 0 1 707.8004569489626,331.7062718613364 L611.0371686695497,260.502993664339 A94.12679058441235 94.12679058441235 0.6343835163999128 0 0 555.25,242.18942433820732 Z" style="fill: rgb(204, 235, 197);"/><title> → uk_market
Ingots, blooms, billets and slabs
54.9</title></g><g class="link" style="opacity: 0.8;"><path d="M185.75,330.5626319649948 A56.15628679120743 56.15628679120743 0.9668229152692351 0 1 231.97142812712062,354.826786057592 L319.81925073838613,482.1450766630866 A60.35915627410651 60.35915627410651 0.9668229152692351 0 0 369.5,508.2252175060775 L369.5,510.2252175060775 A62.35915627410651 62.35915627410651 0.9668229152692351 0 1 318.1730796409639,483.28091147414483 L230.32525702969835,355.9626208686502 A54.15628679120743 54.15628679120743 0.9668229152692351 0 0 185.75,332.5626319649948 Z" style="fill: rgb(179, 205, 227);"/><title>Hot rolled bars in lengths → prod2
Hot rolled bars in lengths
55.2</title></g><g class="link" style="opacity: 0.8;"><path d="M185.75,251.1859733992607 A54.13292299178466 54.13292299178466 1.0731853349167981 0 0 233.3179748404524,222.89218973549114 L295.58811305346245,108.25739752256148 A84.11260932748093 84.11260932748093 1.0731853349167981 0 1 369.5,64.2940598681717 L369.5,66.2940598681717 A82.11260932748093 82.11260932748093 1.0731853349167981 0 0 297.3455638693983,109.21205276376973 L235.07542565638823,223.84684497669943 A56.13292299178466 56.13292299178466 1.0731853349167981 0 1 185.75,253.1859733992607 Z" style="fill: rgb(255, 255, 204);"/><title>Rods and bars for reinforcement → e1
Rods and bars for reinforcement
64.6</title></g><g class="link" style="opacity: 0.8;"><path d="M370.5,90.48324181157612 A0 0 0 0 0 370.5,90.48324181157612 L554.25,90.48324181157612 A0 0 0 0 0 554.25,90.48324181157612 L554.25,92.48324181157612 A0 0 0 0 0 554.25,92.48324181157612 L370.5,92.48324181157612 A0 0 0 0 0 370.5,92.48324181157612 Z" style="fill: rgb(255, 255, 204);"/><title>e1 → 
Rods and bars for reinforcement
64.6</title></g><g class="link" style="opacity: 0.8;"><path d="M555.25,90.48324181157612 A999 999 0.021094647777558873 0 0 576.3219902649809,90.26098046331067 L717.8858235683225,87.27429823982793 A1001 1001 0.021094647777558873 0 1 739,87.05159192389827 L739,89.05159192389827 A999 999 0.021094647777558873 0 0 717.9280097350191,89.27385327216372 L576.3641764316775,92.26053549564647 A1001 1001 0.021094647777558873 0 1 555.25,92.48324181157612 Z" style="fill: rgb(255, 255, 204);"/><title> → export
Rods and bars for reinforcement
64.6</title></g><g class="link" style="opacity: 0.8;"><path d="M555.25,380.09394770009214 A154.07213944996278 154.07213944996278 0.22578467660479062 0 1 589.7423134353598,384.0044926307982 L704.9554289476368,410.46909501356095 A152.07213944996278 152.07213944996278 0.22578467660479062 0 0 739,414.32887742555766 L739,416.32887742555766 A154.07213944996278 154.07213944996278 0.22578467660479062 0 1 704.5076865646402,412.4183324948516 L589.2945710523632,385.95373011208886 A152.07213944996278 152.07213944996278 0.22578467660479062 0 0 555.25,382.09394770009214 Z" style="fill: rgb(179, 205, 227);"/><title>Bright bars → uk_market
Bright bars
70.1</title></g><g class="link" style="opacity: 0.8;"><path d="M185.75,524.2177547339263 A904.3049028239627 904.3049028239627 0.037322022235275476 0 0 219.49265287307483,523.5880096124115 L335.6793329348271,519.2496732308223 A906.3956873473235 906.3956873473235 0.037322022235275476 0 1 369.5,518.6184721165889 L369.5,520.7092566399497 A904.3049028239627 904.3049028239627 0.037322022235275476 0 0 335.75734712692514,521.3390017614645 L219.5706670651729,525.6773381430537 A906.3956873473235 906.3956873473235 0.037322022235275476 0 1 185.75,526.3085392572871 Z" style="fill: rgb(251, 180, 174);"/><title>Sheets, coated and uncoated → prod2
Sheets, coated and uncoated
80.1</title></g><g class="link" style="opacity: 0.8;"><path d="M185.75,397.460420471819 A63.046899335525154 63.046899335525154 0.8902977320992077 0 0 234.75377681828172,374.08140957729705 L298.40982039346335,295.4438345742217 A91.46265223633998 91.46265223633998 0.8902977320992077 0 1 369.5,261.52771236025603 L369.5,263.96040054553237 A89.02996405106359 89.02996405106359 0.8902977320992077 0 0 300.3006494454257,296.9744348822834 L236.64460587024405,375.61200988535876 A65.47958752080154 65.47958752080154 0.8902977320992077 0 1 185.75,399.89310865709535 Z" style="fill: rgb(222, 203, 228);"/><title>Light sections → 
Light sections
93.1</title></g><g class="link" style="opacity: 0.8;"><path d="M370.5,241.90652380983906 A0 0 0 0 0 370.5,241.90652380983906 L554.25,241.90652380983906 A0 0 0 0 0 554.25,241.90652380983906 L554.25,244.33921199511545 A0 0 0 0 0 554.25,244.33921199511545 L370.5,244.33921199511545 A0 0 0 0 0 370.5,244.33921199511545 Z" style="fill: rgb(222, 203, 228);"/><title> → 
Light sections
93.1</title></g><g class="link" style="opacity: 0.8;"><path d="M555.25,241.90652380983906 A94.4096911127806 94.4096911127806 0.6343835163999124 0 1 611.2048384625471,260.2751350470621 L707.9681267419601,331.4784132440596 A52.35846710385009 52.35846710385009 0.6343835163999124 0 0 739,341.6654217584574 L739,344.09810994373373 A54.79115528912648 54.79115528912648 0.6343835163999124 0 1 706.5263184611313,333.43779087180707 L609.7630301817182,262.2345126748096 A91.97700292750422 91.97700292750422 0.6343835163999124 0 0 555.25,244.33921199511545 Z" style="fill: rgb(222, 203, 228);"/><title> → uk_market
Light sections
93.1</title></g><g class="link" style="opacity: 0.8;"><path d="M185.75,394.9663370298614 A60.55281589356751 60.55281589356751 1.2389026249546744 0 0 242.99826747824446,354.1436854381861 L319.80642230856665,131.28016920203407 A52.562045867773605 52.562045867773605 1.2389026249546744 0 1 369.5,95.84462332787899 L369.5,98.33870676983662 A50.06796242581596 50.06796242581596 1.2389026249546744 0 0 322.16439615158686,132.09282630750948 L245.35624132126466,354.9563425436615 A63.046899335525154 63.046899335525154 1.2389026249546744 0 1 185.75,397.460420471819 Z" style="fill: rgb(222, 203, 228);"/><title>Light sections → e1
Light sections
95.5</title></g><g class="link" style="opacity: 0.8;"><path d="M370.5,79.03894065877176 A0 0 0 0 0 370.5,79.03894065877176 L554.25,79.03894065877176 A0 0 0 0 0 554.25,79.03894065877176 L554.25,81.53302410072939 A0 0 0 0 0 554.25,81.53302410072939 L370.5,81.53302410072939 A0 0 0 0 0 370.5,81.53302410072939 Z" style="fill: rgb(222, 203, 228);"/><title>e1 → 
Light sections
95.5</title></g><g class="link" style="opacity: 0.8;"><path d="M555.25,79.03894065877176 A998.7529582790212 998.7529582790212 0.021094647777558873 0 0 576.3167793933698,78.81673427329507 L717.8806126967114,75.83005204981232 A1001.2470417209788 1001.2470417209788 0.021094647777558873 0 1 739,75.60729077109391 L739,78.10137421305154 A998.7529582790212 998.7529582790212 0.021094647777558873 0 0 717.9332206066302,78.32358059852824 L576.3693873032886,81.31026282201098 A1001.2470417209788 1001.2470417209788 0.021094647777558873 0 1 555.25,81.53302410072939 Z" style="fill: rgb(222, 203, 228);"/><title> → export
Light sections
95.5</title></g><g class="link" style="opacity: 0.8;"><path d="M185.75,301.62463929466173 A84.74820049160941 84.74820049160941 0.4513889641897775 0 0 222.71850432319096,293.1364360143835 L318.0756131428516,246.91023855101903 A117.88749172613333 117.88749172613333 0.4513889641897775 0 1 369.5,235.10287287046268 L369.5,237.8322408092641 A115.1581237873319 115.1581237873319 0.4513889641897775 0 0 319.2662065697309,249.36623868074807 L223.90909775007023,295.59243614411247 A87.47756843041084 87.47756843041084 0.4513889641897775 0 1 185.75,304.3540072334631 Z" style="fill: rgb(229, 216, 189);"/><title>Rods in coil → 
Rods in coil
105</title></g><g class="link" style="opacity: 0.8;"><path d="M370.5,280.8199082320433 A0 0 0 0 0 370.5,280.8199082320433 L554.25,280.8199082320433 A0 0 0 0 0 554.25,280.8199082320433 L554.25,283.5492761708447 A0 0 0 0 0 554.25,283.5492761708447 L370.5,283.5492761708447 A0 0 0 0 0 370.5,283.5492761708447 Z" style="fill: rgb(229, 216, 189);"/><title> → 
Rods in coil
105</title></g><g class="link" style="opacity: 0.8;"><path d="M555.25,280.8199082320433 A55.49630669057633 55.49630669057633 0.634383516399913 0 1 588.1416114388048,291.6174235155448 L684.9048997182177,362.8207017125422 A91.27185152605436 91.27185152605436 0.634383516399913 0 0 739,380.5788061806617 L739,383.30817411946305 A94.0012194648558 94.0012194648558 0.634383516399913 0 1 683.2872549582318,365.0190362584762 L586.5239666788189,293.8157580614788 A52.7669387517749 52.7669387517749 0.634383516399913 0 0 555.25,283.5492761708447 Z" style="fill: rgb(229, 216, 189);"/><title> → uk_market
Rods in coil
105</title></g><g class="link" style="opacity: 0.8;"><path d="M370.5,507.3091078015364 A57.130021125537304 57.130021125537304 0.7515725935651926 0 0 409.50772519372003,491.91919555242106 L513.1006822203979,395.1076225001016 A60.26655956929765 60.26655956929765 0.7515725935651926 0 1 554.25,378.8727770536157 L554.25,382.009315497376 A57.130021125537304 57.130021125537304 0.7515725935651926 0 0 515.24227480628,397.39922774649136 L411.64931777960214,494.2108007988108 A60.26655956929765 60.26655956929765 0.7515725935651926 0 1 370.5,510.4456462452967 Z" style="fill: rgb(179, 205, 227);"/><title>prod2 → Bright bars
Bright bars
120</title></g><g class="link" style="opacity: 0.8;"><path d="M185.75,327.11749254157104 A68.25444523595482 68.25444523595482 0.6204130154911669 0 0 225.431172512179,314.3974856527053 L302.5503770064075,259.2932917755399 A115.1581237873319 115.1581237873319 0.6204130154911669 0 1 369.5,237.8322408092641 L369.5,241.5567635847062 A111.4336010118898 111.4336010118898 0.6204130154911669 0 0 304.7157074880624,262.323706567281 L227.5965029938339,317.42790044444644 A71.97896801139692 71.97896801139692 0.6204130154911669 0 1 185.75,330.84201531701314 Z" style="fill: rgb(179, 205, 227);"/><title>Hot rolled bars in lengths → 
Hot rolled bars in lengths
143</title></g><g class="link" style="opacity: 0.8;"><path d="M370.5,236.74780209113348 A0 0 0 0 0 370.5,236.74780209113348 L554.25,236.74780209113348 A0 0 0 0 0 554.25,236.74780209113348 L554.25,240.47232486657558 A0 0 0 0 0 554.25,240.47232486657558 L370.5,240.47232486657558 A0 0 0 0 0 370.5,240.47232486657558 Z" style="fill: rgb(179, 205, 227);"/><title> → 
Hot rolled bars in lengths
143</title></g><g class="link" style="opacity: 0.8;"><path d="M555.25,236.74780209113348 A99.56841283148619 99.56841283148619 0.6343835163999128 0 1 614.2623152643573,256.1201085275997 L711.0256035437703,327.3233867245971 A47.199745385144524 47.199745385144524 0.6343835163999128 0 0 739,336.5067000397518 L739,340.2312228151939 A50.92426816058662 50.92426816058662 0.6343835163999128 0 1 708.8181493323061,330.3232560232627 L612.0548610528931,259.11997782626526 A95.84389005604409 95.84389005604409 0.6343835163999128 0 0 555.25,240.47232486657558 Z" style="fill: rgb(179, 205, 227);"/><title> → uk_market
Hot rolled bars in lengths
143</title></g><g class="link" style="opacity: 0.8;"><path d="M1,370.0932551238317 A209.81310004630737 209.81310004630737 0.16488213953394837 0 1 35.43789770189224,372.93880178817585 L151.12098125754156,392.1876266992796 A204.88500009345492 204.88500009345492 0.16488213953394837 0 0 184.75,394.9663370298614 L184.75,399.89443698271384 A209.81310004630737 209.81310004630737 0.16488213953394837 0 1 150.31210229810776,397.0488903183697 L34.62901874245847,377.80006540726595 A204.88500009345492 204.88500009345492 0.16488213953394837 0 0 1,375.02135507668413 Z" style="fill: rgb(222, 203, 228);"/><title>prod1 → Light sections
Light sections
189</title></g><g class="link" style="opacity: 0.8;"><path d="M185.75,322.0770935436881 A54.63354110743299 54.63354110743299 1.1647061029815924 0 0 235.94031990467542,289.0249240748677 L307.8107195929705,121.88085128671621 A67.15047529895202 67.15047529895202 1.1647061029815924 0 1 369.5,81.2561938967006 L369.5,86.29659289458358 A62.11007630106903 62.11007630106903 1.1647061029815924 0 0 312.4411944445545,123.87191248786182 L240.57079475625946,291.01598527601334 A59.673940105315964 59.673940105315964 1.1647061029815924 0 1 185.75,327.1174925415711 Z" style="fill: rgb(179, 205, 227);"/><title>Hot rolled bars in lengths → e1
Hot rolled bars in lengths
193</title></g><g class="link" style="opacity: 0.8;"><path d="M370.5,57.50102846419095 A0 0 0 0 0 370.5,57.50102846419095 L554.25,57.50102846419095 A0 0 0 0 0 554.25,57.50102846419095 L554.25,62.54142746207394 A0 0 0 0 0 554.25,62.54142746207394 L370.5,62.54142746207394 A0 0 0 0 0 370.5,62.54142746207394 Z" style="fill: rgb(179, 205, 227);"/><title>e1 → 
Hot rolled bars in lengths
193</title></g><g class="link" style="opacity: 0.8;"><path d="M555.25,57.50102846419095 A997.4798005010585 997.4798005010585 0.021094647777558873 0 0 576.2899245702436,57.27910533573558 L717.8537578735852,54.292423112252834 A1002.5201994989415 1002.5201994989415 0.021094647777558873 0 1 739,54.0693785765131 L739,59.10977757439609 A997.4798005010585 997.4798005010585 0.021094647777558873 0 0 717.9600754297564,59.331700702851464 L576.3962421264148,62.31838292633421 A1002.5201994989415 1002.5201994989415 0.021094647777558873 0 1 555.25,62.54142746207394 Z" style="fill: rgb(179, 205, 227);"/><title> → export
Hot rolled bars in lengths
193</title></g><g class="link" style="opacity: 0.8;"><path d="M555.25,511.26046722319285 A68.00945549632507 68.00945549632507 1.4050374519193638 0 0 622.3272787500796,454.472629809424 L666.6603423855881,189.47151807611291 A73.34496593812557 73.34496593812557 1.4050374519193638 0 1 739,128.22853398785256 L739,133.56404442965302 A68.00945549632507 68.00945549632507 1.4050374519193638 0 0 671.9227212499204,190.35188184342186 L627.5896576144119,455.35299357673296 A73.34496593812557 73.34496593812557 1.4050374519193638 0 1 555.25,516.5959776649934 Z" style="fill: rgb(222, 203, 228);"/><title>Tubes and pipes → export
Tubes and pipes
204</title></g><g class="link" style="opacity: 0.8;"><path d="M185.75,445.17203628231437 A92.23948851742328 92.23948851742328 0.41592313992944696 0 1 223.01793921008073,453.0360310293923 L335.73556938059363,502.822451249139 A83.56817888051192 83.56817888051192 0.41592313992944696 0 0 369.5,509.9471624796775 L369.5,518.6184721165888 A92.23948851742328 92.23948851742328 0.41592313992944696 0 1 332.23206078991933,510.75447736951094 L219.51443061940637,460.9680571497642 A83.56817888051192 83.56817888051192 0.41592313992944696 0 0 185.75,453.8433459192257 Z" style="fill: rgb(254, 217, 166);"/><title>Plates in coil and in lengths → prod2
Plates in coil and in lengths
332</title></g><g class="link" style="opacity: 0.8;"><path d="M185.75,416.47649158673363 A59.08688005265222 59.08688005265222 1.2526390650123622 0 0 241.8715145699225,375.8729823504257 L321.9447748762014,132.74456764772006 A50.06796242581596 50.06796242581596 1.2526390650123622 0 1 369.5,98.33870676983663 L369.5,107.445375840105 A40.961293355547596 40.961293355547596 1.2526390650123622 0 0 330.59441182530253,135.59328704494519 L250.52115151902365,378.72170174765074 A68.19354912292059 68.19354912292059 1.2526390650123622 0 1 185.75,425.583160657002 Z" style="fill: rgb(254, 217, 166);"/><title>Plates in coil and in lengths → e1
Plates in coil and in lengths
349</title></g><g class="link" style="opacity: 0.8;"><path d="M370.5,81.5330241007294 A0 0 0 0 0 370.5,81.5330241007294 L554.25,81.5330241007294 A0 0 0 0 0 554.25,81.5330241007294 L554.25,90.63969317099777 A0 0 0 0 0 554.25,90.63969317099777 L370.5,90.63969317099777 A0 0 0 0 0 370.5,90.63969317099777 Z" style="fill: rgb(254, 217, 166);"/><title>e1 → 
Plates in coil and in lengths
349</title></g><g class="link" style="opacity: 0.8;"><path d="M555.25,81.5330241007294 A995.4466654648658 995.4466654648658 0.021094647777558873 0 0 576.2470394834668,81.31155331194805 L717.8108727868084,78.3248710884653 A1004.5533345351342 1004.5533345351342 0.021094647777558873 0 1 739,78.10137421305156 L739,87.20804328331992 A995.4466654648658 995.4466654648658 0.021094647777558873 0 0 718.0029605165332,87.42951407210128 L576.4391272131916,90.41619629558403 A1004.5533345351342 1004.5533345351342 0.021094647777558873 0 1 555.25,90.63969317099777 Z" style="fill: rgb(254, 217, 166);"/><title> → export
Plates in coil and in lengths
349</title></g><g class="link" style="opacity: 0.8;"><path d="M185.75,348.8653032169963 A53.89999244458129 53.89999244458129 1.1894727415511728 0 0 235.7785110794778,315.0241558213327 L311.85111176369696,125.29244709663179 A62.11007630106903 62.11007630106903 1.1894727415511728 0 1 369.5,86.29659289458357 L369.5,95.84462332787899 A52.562045867773605 52.562045867773605 1.1894727415511728 0 0 320.71333464453403,128.8457400433932 L244.6407339603148,318.57744876809414 A63.448022877876724 63.448022877876724 1.1894727415511728 0 1 185.75,358.4133336502918 Z" style="fill: rgb(251, 180, 174);"/><title>Heavy sections, sheet piling, rails and rolled accessories → e1
Heavy sections, sheet piling, rails and rolled accessories
366</title></g><g class="link" style="opacity: 0.8;"><path d="M370.5,47.95299803089553 A0 0 0 0 0 370.5,47.95299803089553 L554.25,47.95299803089553 A0 0 0 0 0 554.25,47.95299803089553 L554.25,57.50102846419095 A0 0 0 0 0 554.25,57.50102846419095 L370.5,57.50102846419095 A0 0 0 0 0 370.5,57.50102846419095 Z" style="fill: rgb(251, 180, 174);"/><title>e1 → 
Heavy sections, sheet piling, rails and rolled accessories
366</title></g><g class="link" style="opacity: 0.8;"><path d="M555.25,47.95299803089553 A995.2259847833523 995.2259847833523 0.021094647777558873 0 0 576.2423846474583,47.731576339997865 L717.8062179507999,44.74489411651512 A1004.7740152166477 1004.7740152166477 0.021094647777558873 0 1 739,44.52134814321768 L739,54.0693785765131 A995.2259847833523 995.2259847833523 0.021094647777558873 0 0 718.0076153525417,54.290800267410766 L576.4437820492001,57.27748249089351 A1004.7740152166477 1004.7740152166477 0.021094647777558873 0 1 555.25,57.50102846419095 Z" style="fill: rgb(251, 180, 174);"/><title> → export
Heavy sections, sheet piling, rails and rolled accessories
366</title></g><g class="link" style="opacity: 0.8;"><path d="M555.25,516.5959776649934 A73.34496593812557 73.34496593812557 0.6298683013370399 0 0 598.4529967408424,502.52145209199045 L697.4206007339418,430.3826752173232 A70.58861312770348 70.58861312770348 0.6298683013370399 0 1 739,416.83707971637494 L739,426.54964130866864 A60.87605153540979 60.87605153540979 0.6298683013370399 0 0 703.1416718592742,438.2314456855549 L604.1740678661748,510.37022256022215 A83.05752753041926 83.05752753041926 0.6298683013370399 0 1 555.25,526.3085392572871 Z" style="fill: rgb(222, 203, 228);"/><title>Tubes and pipes → uk_market
Tubes and pipes
372</title></g><g class="link" style="opacity: 0.8;"><path d="M1,330.36812084569794 A606.9948399125901 606.9948399125901 0.05524436699077806 0 0 34.51599149254995,329.4421004534509 L150.67046268468297,323.0186842622364 A617.2009949818785 617.2009949818785 0.05524436699077806 0 1 184.75,322.0770935436881 L184.75,332.28324861297654 A606.9948399125901 606.9948399125901 0.05524436699077806 0 0 151.23400850745006,333.2092690052236 L35.07953731531703,339.6326851964381 A617.2009949818785 617.2009949818785 0.05524436699077806 0 1 1,340.5742759149864 Z" style="fill: rgb(179, 205, 227);"/><title>prod1 → Hot rolled bars in lengths
Hot rolled bars in lengths
391</title></g><g class="link" style="opacity: 0.8;"><path d="M370.5,511.26046722319285 A0 0 0 0 0 370.5,511.26046722319285 L554.25,511.26046722319285 A0 0 0 0 0 554.25,511.26046722319285 L554.25,526.3085392572871 A0 0 0 0 0 554.25,526.3085392572871 L370.5,526.3085392572871 A0 0 0 0 0 370.5,526.3085392572871 Z" style="fill: rgb(222, 203, 228);"/><title>prod2 → Tubes and pipes
Tubes and pipes
576</title></g><g class="link" style="opacity: 0.8;"><path d="M185.75,286.5060539067112 A48.47843590081645 48.47843590081645 1.1476827215664076 0 0 229.95336073092108,257.9329350714839 L294.4858437269436,114.62687190575271 A82.26906068690258 82.26906068690258 1.1476827215664076 0 1 369.5,66.13760850875003 L369.5,81.2561938967006 A67.15047529895202 67.15047529895202 1.1476827215664076 0 0 308.2711953214565,120.83458529704366 L243.738712325434,264.1406484627748 A63.59702128876701 63.59702128876701 1.1476827215664076 0 1 185.75,301.6246392946618 Z" style="fill: rgb(229, 216, 189);"/><title>Rods in coil → e1
Rods in coil
579</title></g><g class="link" style="opacity: 0.8;"><path d="M370.5,92.32679045215446 A0 0 0 0 0 370.5,92.32679045215446 L554.25,92.32679045215446 A0 0 0 0 0 554.25,92.32679045215446 L554.25,107.44537584010502 A0 0 0 0 0 554.25,107.44537584010502 L370.5,107.44537584010502 A0 0 0 0 0 370.5,107.44537584010502 Z" style="fill: rgb(229, 216, 189);"/><title>e1 → 
Rods in coil
579</title></g><g class="link" style="opacity: 0.8;"><path d="M555.25,92.32679045215446 A992.4407073060247 992.4407073060247 0.021094647777558873 0 0 576.1836345574808,92.1059884404634 L717.7474678608224,89.11930621698066 A1007.5592926939753 1007.5592926939753 0.021094647777558873 0 1 739,88.8951405644766 L739,104.01372595242717 A992.4407073060247 992.4407073060247 0.021094647777558873 0 0 718.0663654425192,104.23452796411821 L576.5025321391776,107.22121018760096 A1007.5592926939753 1007.5592926939753 0.021094647777558873 0 1 555.25,107.44537584010502 Z" style="fill: rgb(229, 216, 189);"/><title> → export
Rods in coil
579</title></g><g class="link" style="opacity: 0.8;"><path d="M185.75,216.77685331558365 A47.074192141496 47.074192141496 1.0385787707375391 0 0 226.313073542604,193.5902443618399 L282.94068871468244,97.43191387217266 A100.45367116475711 100.45367116475711 1.0385787707375391 0 1 369.5,47.95299803089553 L369.5,64.45051122759335 A83.95615796805927 83.95615796805927 1.0385787707375391 0 0 297.15633025041564,105.80350138009234 L240.52871507833714,201.96183186975958 A63.57170533819382 63.57170533819382 1.0385787707375391 0 1 185.75,233.27436651228146 Z" style="fill: rgb(204, 235, 197);"/><title>Ingots, blooms, billets and slabs → e1
Ingots, blooms, billets and slabs
632</title></g><g class="link" style="opacity: 0.8;"><path d="M370.5,62.54142746207395 A0 0 0 0 0 370.5,62.54142746207395 L554.25,62.54142746207395 A0 0 0 0 0 554.25,62.54142746207395 L554.25,79.03894065877176 A0 0 0 0 0 554.25,79.03894065877176 L370.5,79.03894065877176 A0 0 0 0 0 370.5,79.03894065877176 Z" style="fill: rgb(204, 235, 197);"/><title>e1 → 
Ingots, blooms, billets and slabs
632</title></g><g class="link" style="opacity: 0.8;"><path d="M555.25,62.54142746207395 A991.7512434016511 991.7512434016511 0.021094647777558873 0 0 576.1690916378801,62.32077884495443 L717.7329249412218,59.33409662147169 A1008.2487565983489 1008.2487565983489 0.021094647777558873 0 1 739,59.1097775743961 L739,75.60729077109391 A991.7512434016511 991.7512434016511 0.021094647777558873 0 0 718.0809083621199,75.82793938821344 L576.5170750587782,78.81462161169618 A1008.2487565983489 1008.2487565983489 0.021094647777558873 0 1 555.25,79.03894065877176 Z" style="fill: rgb(204, 235, 197);"/><title> → export
Ingots, blooms, billets and slabs
632</title></g><g class="link" style="opacity: 0.8;"><path d="M185.75,253.02952203983907 A142.2344120542409 142.2344120542409 0.2295484123107907 0 0 218.11370584983538,249.2986063894107 L333.29276637339825,222.38505307392654 A159.1262326658564 159.1262326658564 0.2295484123107907 0 1 369.5,218.21105225884713 L369.5,235.10287287046265 A142.2344120542409 142.2344120542409 0.2295484123107907 0 0 337.1362941501646,238.833788520891 L221.95723362660178,265.74734183637514 A159.1262326658564 159.1262326658564 0.2295484123107907 0 1 185.75,269.9213426514546 Z" style="fill: rgb(255, 255, 204);"/><title>Rods and bars for reinforcement → 
Rods and bars for reinforcement
647</title></g><g class="link" style="opacity: 0.8;"><path d="M370.5,263.9280876204278 A0 0 0 0 0 370.5,263.9280876204278 L554.25,263.9280876204278 A0 0 0 0 0 554.25,263.9280876204278 L554.25,280.81990823204336 A0 0 0 0 0 554.25,280.81990823204336 L370.5,280.81990823204336 A0 0 0 0 0 370.5,280.81990823204336 Z" style="fill: rgb(255, 255, 204);"/><title> → 
Rods and bars for reinforcement
647</title></g><g class="link" style="opacity: 0.8;"><path d="M555.25,263.9280876204278 A72.38812730219188 72.38812730219188 0.634383516399913 0 1 598.1530740600751,278.01212235173705 L694.916362339488,349.2154005487345 A74.38003091443882 74.38003091443882 0.634383516399913 0 0 739,363.68698556904616 L739,380.57880618066173 A91.27185152605436 91.27185152605436 0.634383516399913 0 1 684.9048997182177,362.8207017125423 L588.1416114388048,291.61742351554483 A55.49630669057633 55.49630669057633 0.634383516399913 0 0 555.25,280.81990823204336 Z" style="fill: rgb(255, 255, 204);"/><title> → uk_market
Rods and bars for reinforcement
647</title></g><g class="link" style="opacity: 0.8;"><path d="M1,274.814044429653 A86.97871501213234 86.97871501213234 0.3753273418796552 0 0 32.88440542147946,268.7592539150416 L146.27324906362978,224.08351823603587 A104.96223185121121 104.96223185121121 0.3753273418796552 0 1 184.75,216.77685331558365 L184.75,234.7603701546625 A86.97871501213234 86.97871501213234 0.3753273418796552 0 0 152.86559457852056,240.81516066927392 L39.47675093637022,285.4908963482797 A104.96223185121121 104.96223185121121 0.3753273418796552 0 1 1,292.7975612687319 Z" style="fill: rgb(204, 235, 197);"/><title>prod1 → Ingots, blooms, billets and slabs
Ingots, blooms, billets and slabs
689</title></g><g class="link" style="opacity: 0.8;"><path d="M1,292.79756126873184 A119.09833587488899 119.09833587488899 0.27204526246513305 0 0 33.0019660331572,288.4175228802531 L147.7551269456681,256.4058313002362 A137.679910418898 137.679910418898 0.27204526246513305 0 1 184.75,251.34242475868237 L184.75,269.9239993026914 A119.09833587488899 119.09833587488899 0.27204526246513305 0 0 152.7480339668428,274.30403769117015 L37.994873054331904,306.3157292711871 A137.679910418898 137.679910418898 0.27204526246513305 0 1 1,311.3791358127409 Z" style="fill: rgb(255, 255, 204);"/><title>prod1 → Rods and bars for reinforcement
Rods and bars for reinforcement
712</title></g><g class="link" style="opacity: 0.8;"><path d="M1,311.37913581274086 A197.85455755340305 197.85455755340305 0.16488213953394837 0 0 33.475069532709874,308.6957744013365 L149.15815308835903,289.44694949023295 A216.84354258636014 216.84354258636014 0.16488213953394837 0 1 184.75,286.5060539067112 L184.75,305.4950389396683 A197.85455755340305 197.85455755340305 0.16488213953394837 0 0 152.27493046729012,308.17840035107264 L36.59184691164098,327.4272252621762 A216.84354258636014 216.84354258636014 0.16488213953394837 0 1 1,330.36812084569794 Z" style="fill: rgb(229, 216, 189);"/><title>prod1 → Rods in coil
Rods in coil
727</title></g><g class="link" style="opacity: 0.8;"><path d="M185.75,425.583160657002 A68.19354912292059 68.19354912292059 1.050246083429612 0 0 244.9110164440107,391.30618971189404 L292.2624425627039,308.71063763205774 A89.02996405106359 89.02996405106359 1.050246083429612 0 1 369.5,263.9604005455324 L369.5,283.54927617084473 A69.44108842575125 69.44108842575125 1.050246083429612 0 0 309.25668626895003,318.4533132972263 L261.9052601502569,401.0488653770626 A87.78242474823293 87.78242474823293 1.050246083429612 0 1 185.75,445.1720362823143 Z" style="fill: rgb(254, 217, 166);"/><title>Plates in coil and in lengths → 
Plates in coil and in lengths
750</title></g><g class="link" style="opacity: 0.8;"><path d="M370.5,244.33921199511545 A0 0 0 0 0 370.5,244.33921199511545 L554.25,244.33921199511545 A0 0 0 0 0 554.25,244.33921199511545 L554.25,263.9280876204278 A0 0 0 0 0 554.25,263.9280876204278 L370.5,263.9280876204278 A0 0 0 0 0 370.5,263.9280876204278 Z" style="fill: rgb(254, 217, 166);"/><title> → 
Plates in coil and in lengths
750</title></g><g class="link" style="opacity: 0.8;"><path d="M555.25,244.33921199511545 A91.97700292750422 91.97700292750422 0.6343835163999124 0 1 609.7630301817184,262.2345126748096 L706.5263184611314,333.43779087180707 A54.79115528912648 54.79115528912648 0.6343835163999124 0 0 739,344.0981099437338 L739,363.6869855690461 A74.38003091443882 74.38003091443882 0.6343835163999124 0 1 694.916362339488,349.2154005487345 L598.153074060075,278.01212235173705 A72.38812730219188 72.38812730219188 0.6343835163999124 0 0 555.25,263.9280876204278 Z" style="fill: rgb(254, 217, 166);"/><title> → uk_market
Plates in coil and in lengths
750</title></g><g class="link" style="opacity: 0.8;"><path d="M185.75,358.41333365029175 A63.448022877876724 63.448022877876724 0.8315672738307639 0 0 232.6373389185751,337.71141066756616 L287.15188605453676,277.91549820242886 A111.4336010118898 111.4336010118898 0.8315672738307639 0 1 369.5,241.5567635847062 L369.5,261.52771236025603 A91.46265223633998 91.46265223633998 0.8315672738307639 0 0 301.91018113280956,291.37029368130044 L247.3956339968479,351.16620614643773 A83.41897165342655 83.41897165342655 0.8315672738307639 0 1 185.75,378.38428242584155 Z" style="fill: rgb(251, 180, 174);"/><title>Heavy sections, sheet piling, rails and rolled accessories → 
Heavy sections, sheet piling, rails and rolled accessories
765</title></g><g class="link" style="opacity: 0.8;"><path d="M370.5,216.77685331558365 A0 0 0 0 0 370.5,216.77685331558365 L554.25,216.77685331558365 A0 0 0 0 0 554.25,216.77685331558365 L554.25,236.74780209113345 A0 0 0 0 0 554.25,236.74780209113345 L370.5,236.74780209113345 A0 0 0 0 0 370.5,236.74780209113345 Z" style="fill: rgb(251, 180, 174);"/><title> → 
Heavy sections, sheet piling, rails and rolled accessories
765</title></g><g class="link" style="opacity: 0.8;"><path d="M555.25,216.77685331558365 A119.53936160703601 119.53936160703601 0.634383516399913 0 1 626.0987189164441,240.03476291177583 L722.8620071958569,311.2380411087733 A27.228796609594696 27.228796609594696 0.634383516399913 0 0 739,316.535751264202 L739,336.5067000397518 A47.199745385144524 47.199745385144524 0.634383516399913 0 1 711.0256035437703,327.3233867245971 L614.2623152643573,256.1201085275997 A99.56841283148619 99.56841283148619 0.634383516399913 0 0 555.25,236.74780209113345 Z" style="fill: rgb(251, 180, 174);"/><title> → uk_market
Heavy sections, sheet piling, rails and rolled accessories
765</title></g><g class="link" style="opacity: 0.8;"><path d="M185.75,470.4254005232455 A54.43020326601659 54.43020326601659 1.2673337413529076 0 0 237.69315121461804,432.26037692039915 L330.41033053257144,136.1663548906026 A40.961293355547596 40.961293355547596 1.2673337413529076 0 1 369.5,107.445375840105 L369.5,130.1323945419752 A18.27427465367741 18.27427465367741 1.2673337413529076 0 0 352.0607226371305,142.94583416985805 L259.3435433191771,439.03985619965454 A77.11722196788678 77.11722196788678 1.2673337413529076 0 1 185.75,493.11241922511573 Z" style="fill: rgb(251, 180, 174);"/><title>Sheets, coated and uncoated → e1
Sheets, coated and uncoated
869</title></g><g class="link" style="opacity: 0.8;"><path d="M370.5,107.44537584010502 A0 0 0 0 0 370.5,107.44537584010502 L554.25,107.44537584010502 A0 0 0 0 0 554.25,107.44537584010502 L554.25,130.1323945419752 A0 0 0 0 0 554.25,130.1323945419752 L370.5,130.1323945419752 A0 0 0 0 0 370.5,130.1323945419752 Z" style="fill: rgb(251, 180, 174);"/><title>e1 → 
Sheets, coated and uncoated
869</title></g><g class="link" style="opacity: 0.8;"><path d="M555.25,107.44537584010502 A988.656490649065 988.656490649065 0.021094647777558873 0 0 576.1038137601273,107.2254157554373 L717.667647063469,104.23873353195455 A1011.343509350935 1011.343509350935 0.021094647777558873 0 1 739,104.01372595242717 L739,126.70074465429735 A988.656490649065 988.656490649065 0.021094647777558873 0 0 718.1461862398727,126.92070473896507 L576.582352936531,129.90738696244782 A1011.343509350935 1011.343509350935 0.021094647777558873 0 1 555.25,130.1323945419752 Z" style="fill: rgb(251, 180, 174);"/><title> → export
Sheets, coated and uncoated
869</title></g><g class="link" style="opacity: 0.8;"><path d="M1,340.5742759149864 A626.8574070516528 626.8574070516528 0.05524436699078139 0 1 35.61272837972046,341.53059828182 L151.76719957184986,347.9540144730345 A597.3384278428076 597.3384278428076 0.05524436699078139 0 0 184.75,348.8653032169963 L184.75,378.3842824258416 A626.8574070516528 626.8574070516528 0.05524436699078139 0 1 150.13727162027953,377.427960059008 L33.98280042815015,371.00454386779353 A597.3384278428076 597.3384278428076 0.05524436699078139 0 0 1,370.0932551238317 Z" style="fill: rgb(251, 180, 174);"/><title>prod1 → Heavy sections, sheet piling, rails and rolled accessories
Heavy sections, sheet piling, rails and rolled accessories
1.13k</title></g><g class="link" style="opacity: 0.8;"><path d="M185.75,493.11241922511573 A77.11722196788678 77.11722196788678 1.1851775522140882 0 0 257.20418577315075,445.0014941518753 L305.15825757144563,326.8713113401976 A69.44108842575125 69.44108842575125 1.1851775522140882 0 1 369.5,283.5492761708448 L369.5,314.65461167965543 A38.335752916940635 38.335752916940635 1.1851775522140882 0 0 333.9793997918991,338.57104032099346 L286.0253279936042,456.70122313267115 A108.22255747669739 108.22255747669739 1.1851775522140882 0 1 185.75,524.2177547339263 Z" style="fill: rgb(251, 180, 174);"/><title>Sheets, coated and uncoated → 
Sheets, coated and uncoated
1.19k</title></g><g class="link" style="opacity: 0.8;"><path d="M370.5,283.54927617084473 A0 0 0 0 0 370.5,283.54927617084473 L554.25,283.54927617084473 A0 0 0 0 0 554.25,283.54927617084473 L554.25,314.6546116796554 A0 0 0 0 0 554.25,314.6546116796554 L370.5,314.6546116796554 A0 0 0 0 0 370.5,314.6546116796554 Z" style="fill: rgb(251, 180, 174);"/><title> → 
Sheets, coated and uncoated
1.19k</title></g><g class="link" style="opacity: 0.8;"><path d="M555.25,283.54927617084473 A52.7669387517749 52.7669387517749 0.634383516399913 0 1 586.5239666788189,293.81575806147885 L683.2872549582318,365.01903625847626 A94.0012194648558 94.0012194648558 0.634383516399913 0 0 739,383.3081741194631 L739,414.41350962827374 A125.1065549736664 125.1065549736664 0.634383516399913 0 1 664.8517108609668,390.0724314566021 L568.0884225815539,318.8691532596047 A21.66160324296429 21.66160324296429 0.634383516399913 0 0 555.25,314.6546116796554 Z" style="fill: rgb(251, 180, 174);"/><title> → uk_market
Sheets, coated and uncoated
1.19k</title></g><g class="link" style="opacity: 0.8;"><path d="M1,375.02135507668413 A161.27889713118472 161.27889713118472 0.27660025721574133 0 1 45.043124454123955,381.15165940674217 L154.790831706136,412.3065145155539 A109.70569598064746 109.70569598064746 0.27660025721574133 0 0 184.75,416.47649158673363 L184.75,453.84334591922567 A147.07255031313954 147.07255031313954 0.27660025721574133 0 1 144.5864401515087,448.25303306332887 L34.838732899496634,417.09817795451715 A123.91204279869264 123.91204279869264 0.27660025721574133 0 0 1,412.38820940917617 Z" style="fill: rgb(254, 217, 166);"/><title>prod1 → Plates in coil and in lengths
Plates in coil and in lengths
1.43k</title></g><g class="link" style="opacity: 0.8;"><path d="M1,412.3882094091762 A123.91204279869262 123.91204279869262 0.37532734187965433 0 1 46.423317746716876,421.01401471429017 L159.81216138886728,465.68975039329587 A68.02890406465116 68.02890406465116 0.37532734187965433 0 0 184.75,470.4254005232455 L184.75,526.308539257287 A123.91204279869262 123.91204279869262 0.37532734187965433 0 1 139.3266822532831,517.6827339521731 L25.937838611132733,473.00699827316737 A68.02890406465116 68.02890406465116 0.37532734187965433 0 0 1,468.2713481432177 Z" style="fill: rgb(251, 180, 174);"/><title>prod1 → Sheets, coated and uncoated
Sheets, coated and uncoated
2.14k</title></g></g><g class="nodes"><g class="node" transform="translate(0,274.814044429653)"><title>prod1</title><text dy=".35em" text-anchor="end" transform="translate(-4,96.72865185678234)" style="display: inline;">prod1</text><line x1="0" x2="0" y1="0" y2="193.45730371356467" style="display: inline; stroke: rgb(0, 0, 0);"/><rect x="-5" y="-5" width="10" style="fill: none; visibility: hidden; pointer-events: all;" height="198.45730371356467"/></g><g class="node" transform="translate(184.75,216.77685331558365)"><title>Ingots, blooms, billets and slabs</title><text dy=".35em" text-anchor="start" transform="translate(-4,-10)" style="display: inline;">Ingots, blooms, billets and slabs</text><line x1="0" x2="0" y1="-5" y2="17.983516839078874" style="display: inline; stroke: rgb(0, 0, 0);"/><rect x="-5" y="-5" width="10" style="fill: none; visibility: hidden; pointer-events: all;" height="22.983516839078874"/></g><g class="node" transform="translate(184.75,251.34242475868234)"><title>Rounds and squares for tubes</title><text dy=".35em" text-anchor="start" transform="translate(4,0)" style="display: none;">Rounds and squares for tubes</text><line x1="0" x2="0" y1="0" y2="0" style="display: none; stroke: rgb(0, 0, 0);"/><rect x="-5" y="-5" width="10" style="fill: none; visibility: hidden; pointer-events: all;" height="5"/></g><g class="node" transform="translate(184.75,251.34242475868234)"><title>Rods and bars for reinforcement</title><text dy=".35em" text-anchor="start" transform="translate(4,9.290787272004508)" style="display: inline;">Rods and bars for reinforcement</text><line x1="0" x2="0" y1="0" y2="18.581574544009015" style="display: inline; stroke: rgb(0, 0, 0);"/><rect x="-5" y="-5" width="10" style="fill: none; visibility: hidden; pointer-events: all;" height="23.581574544009015"/></g><g class="node" transform="translate(184.75,286.5060539067112)"><title>Rods in coil</title><text dy=".35em" text-anchor="start" transform="translate(4,9.494492516478545)" style="display: inline;">Rods in coil</text><line x1="0" x2="0" y1="0" y2="18.98898503295709" style="display: inline; stroke: rgb(0, 0, 0);"/><rect x="-5" y="-5" width="10" style="fill: none; visibility: hidden; pointer-events: all;" height="23.98898503295709"/></g><g class="node" transform="translate(184.75,322.0770935436881)"><title>Hot rolled bars in lengths</title><text dy=".35em" text-anchor="start" transform="translate(4,5.103077534644228)" style="display: inline;">Hot rolled bars in lengths</text><line x1="0" x2="0" y1="0" y2="10.206155069288457" style="display: inline; stroke: rgb(0, 0, 0);"/><rect x="-5" y="-5" width="10" style="fill: none; visibility: hidden; pointer-events: all;" height="15.206155069288457"/></g><g class="node" transform="translate(184.75,348.8653032169963)"><title>Heavy sections, sheet piling, rails and rolled accessories</title><text dy=".35em" text-anchor="start" transform="translate(4,14.75948960442264)" style="display: inline;">Heavy sections, sheet piling, rails and rolled accessories</text><line x1="0" x2="0" y1="0" y2="29.51897920884528" style="display: inline; stroke: rgb(0, 0, 0);"/><rect x="-5" y="-5" width="10" style="fill: none; visibility: hidden; pointer-events: all;" height="34.51897920884528"/></g><g class="node" transform="translate(184.75,394.9663370298614)"><title>Light sections</title><text dy=".35em" text-anchor="start" transform="translate(4,2.4640499764262245)" style="display: inline;">Light sections</text><line x1="0" x2="0" y1="0" y2="4.928099952852449" style="display: inline; stroke: rgb(0, 0, 0);"/><rect x="-5" y="-5" width="10" style="fill: none; visibility: hidden; pointer-events: all;" height="9.928099952852449"/></g><g class="node" transform="translate(184.75,416.47649158673363)"><title>Plates in coil and in lengths</title><text dy=".35em" text-anchor="start" transform="translate(4,18.683427166246048)" style="display: inline;">Plates in coil and in lengths</text><line x1="0" x2="0" y1="0" y2="37.366854332492096" style="display: inline; stroke: rgb(0, 0, 0);"/><rect x="-5" y="-5" width="10" style="fill: none; visibility: hidden; pointer-events: all;" height="42.366854332492096"/></g><g class="node" transform="translate(184.75,470.4254005232455)"><title>Sheets, coated and uncoated</title><text dy=".35em" text-anchor="start" transform="translate(4,27.94156936702072)" style="display: inline;">Sheets, coated and uncoated</text><line x1="0" x2="0" y1="0" y2="55.88313873404144" style="display: inline; stroke: rgb(0, 0, 0);"/><rect x="-5" y="-5" width="10" style="fill: none; visibility: hidden; pointer-events: all;" height="60.88313873404144"/></g><g class="node" transform="translate(369.5,47.95299803089553)"><title>e1</title><text dy=".35em" text-anchor="start" transform="translate(-4,-10)" style="display: inline;">e1</text><line x1="0" x2="0" y1="-5" y2="82.17939651107967" style="display: inline; stroke: rgb(0, 0, 0);"/><rect x="-5" y="-5" width="10" style="fill: none; visibility: hidden; pointer-events: all;" height="87.17939651107967"/></g><g class="node" transform="translate(369.5,216.77685331558365)"><title/><text dy=".35em" text-anchor="start" transform="translate(-4,-10)" style="display: none;"/><line x1="0" x2="0" y1="-5" y2="97.87775836407172" style="display: none; stroke: rgb(0, 0, 0);"/><rect x="-5" y="-5" width="10" style="fill: none; visibility: hidden; pointer-events: all;" height="102.87775836407172"/></g><g class="node" transform="translate(369.5,507.3091078015364)"><title>prod2</title><text dy=".35em" text-anchor="start" transform="translate(-4,-10)" style="display: inline;">prod2</text><line x1="0" x2="0" y1="-5" y2="18.999431455750653" style="display: inline; stroke: rgb(0, 0, 0);"/><rect x="-5" y="-5" width="10" style="fill: none; visibility: hidden; pointer-events: all;" height="23.999431455750653"/></g><g class="node" transform="translate(554.25,47.95299803089553)"><title/><text dy=".35em" text-anchor="start" transform="translate(-4,-10)" style="display: none;"/><line x1="0" x2="0" y1="-5" y2="82.17939651107967" style="display: none; stroke: rgb(0, 0, 0);"/><rect x="-5" y="-5" width="10" style="fill: none; visibility: hidden; pointer-events: all;" height="87.17939651107967"/></g><g class="node" transform="translate(554.25,216.77685331558365)"><title/><text dy=".35em" text-anchor="start" transform="translate(-4,-10)" style="display: none;"/><line x1="0" x2="0" y1="-5" y2="97.87775836407172" style="display: none; stroke: rgb(0, 0, 0);"/><rect x="-5" y="-5" width="10" style="fill: none; visibility: hidden; pointer-events: all;" height="102.87775836407172"/></g><g class="node" transform="translate(554.25,378.8727770536157)"><title>Bright bars</title><text dy=".35em" text-anchor="start" transform="translate(-4,-10)" style="display: inline;">Bright bars</text><line x1="0" x2="0" y1="-5" y2="3.136538443760344" style="display: inline; stroke: rgb(0, 0, 0);"/><rect x="-5" y="-5" width="10" style="fill: none; visibility: hidden; pointer-events: all;" height="8.136538443760344"/></g><g class="node" transform="translate(554.25,446.2274808713364)"><title>Cold rolled narrow strip</title><text dy=".35em" text-anchor="start" transform="translate(-4,-10)" style="display: inline;">Cold rolled narrow strip</text><line x1="0" x2="0" y1="-5" y2="1" style="display: inline; stroke: rgb(0, 0, 0);"/><rect x="-5" y="-5" width="10" style="fill: none; visibility: hidden; pointer-events: all;" height="6"/></g><g class="node" transform="translate(554.25,511.26046722319285)"><title>Tubes and pipes</title><text dy=".35em" text-anchor="start" transform="translate(-4,-10)" style="display: inline;">Tubes and pipes</text><line x1="0" x2="0" y1="-5" y2="15.048072034094218" style="display: inline; stroke: rgb(0, 0, 0);"/><rect x="-5" y="-5" width="10" style="fill: none; visibility: hidden; pointer-events: all;" height="20.04807203409422"/></g><g class="node" transform="translate(739,44.52134814321768)"><title>export</title><text dy=".35em" text-anchor="start" transform="translate(4,44.521348143217686)" style="display: inline;">export</text><line x1="0" x2="0" y1="0" y2="89.04269628643537" style="display: inline; stroke: rgb(0, 0, 0);"/><rect x="-5" y="-5" width="10" style="fill: none; visibility: hidden; pointer-events: all;" height="94.04269628643537"/></g><g class="node" transform="translate(739,316.535751264202)"><title>uk_market</title><text dy=".35em" text-anchor="start" transform="translate(4,55.00694502223331)" style="display: inline;">uk_market</text><line x1="0" x2="0" y1="0" y2="110.01389004446662" style="display: inline; stroke: rgb(0, 0, 0);"/><rect x="-5" y="-5" width="10" style="fill: none; visibility: hidden; pointer-events: all;" height="115.01389004446662"/></g></g><g class="slice-titles"/></g></svg>